<?xml version="1.0" encoding="UTF-8" standalone="no"?>
<svg
   height="960"
   width="960"
   version="1.1"
   viewBox="0 0 960 960"
   xml:space="preserve"
   xmlns="http://www.w3.org/2000/svg"
   xmlns:svg="http://www.w3.org/2000/svg">

<g id="g1">
	<path
		class="st0"
		d="m 442.61097,326.26972 c -24.21677,-28.45567 -14.25191,-110.69491 37.00016,-110.69491 51.24836,0 61.24655,102.5171 27.06493,115.33012 39.14831,3.90927 92.13927,-14.32969 111.76899,-92.20224 C 640.49699,151.14861 579.99118,29.41106 502.40382,5.92208 475.35555,63.57788 355.4069,97.85765 347.21057,208.0933 c -6.4204,86.14481 74.02994,118.17642 95.4004,118.17642 z"
		id="path1"
		style="stroke-width:1.85186" />
		
	<path
		class="st0"
		d="m 634.62845,469.85181 c -4.31854,-15.7871 -12.22783,-30.00753 -23.52232,-41.44462 -5.60003,-5.69447 -12.03709,-10.7093 -19.13897,-14.94821 -7.08707,-4.23891 -14.8371,-7.73337 -23.17417,-10.51856 -8.763,-2.91113 -17.95378,-6.70559 -26.68345,-11.18338 -6.56484,-3.33891 -12.82968,-7.03892 -18.42786,-10.94635 -8.44818,-5.82224 -15.3445,-12.21116 -19.63156,-18.04822 -2.13334,-2.89446 -3.65187,-5.64632 -4.58706,-8.0667 -0.91667,-2.46668 -1.31296,-4.57039 -1.31296,-6.61114 h -0.38149 V 297.8159 c 0,-10.04449 -8.113,-18.15934 -18.14267,-18.15934 -10.02782,0 -18.15933,8.11485 -18.15933,18.15934 v 53.6706 c -0.1426,0.75926 -0.36297,1.55 -0.64815,2.38889 -1.23334,3.68521 -3.89076,8.16115 -8.10004,12.86117 -6.27965,7.05373 -15.86488,14.37784 -26.81122,20.68898 -10.94634,6.31299 -23.2038,11.69079 -34.70385,15.51858 -11.10375,3.71668 -21.19454,8.70004 -30.03717,15.02599 -6.6278,4.72965 -12.55931,10.23523 -17.63711,16.38896 -7.6241,9.23707 -13.32042,19.94453 -16.97414,31.60383 -3.70002,11.64265 -5.4241,24.21862 -5.4241,37.48905 0,41.66499 0,256.2696 0,339.58291 -0.0167,12.37043 2.04075,23.85381 5.83706,34.16681 3.33705,9.04819 7.98893,17.14637 13.5408,24.23344 9.69634,12.43338 21.97046,21.73342 34.87793,28.78901 19.45748,10.56671 40.52609,16.30933 59.28543,19.67786 18.74638,3.32224 35.13348,4.15928 45.33538,4.17594 8.87411,0 22.42972,-0.66481 38.18534,-2.99075 11.80005,-1.78704 24.81863,-4.50743 37.96313,-8.79263 9.84078,-3.19631 19.75934,-7.26114 29.24827,-12.51302 7.10373,-3.9389 13.98339,-8.57411 20.34267,-14.00005 9.57042,-8.19263 17.9686,-18.36304 23.88529,-30.60754 5.94817,-12.2445 9.25374,-26.47974 9.23708,-42.14092 0,-83.31331 0,-297.91607 0,-339.58291 -0.002,-11.78524 -1.37964,-23.03343 -4.24076,-33.59829 z m -32.0631,373.17935 c -0.0167,8.4167 -1.36112,15.47043 -3.62409,21.62416 -1.97593,5.3778 -4.6815,10.10745 -8.0667,14.45747 -5.90003,7.57596 -14.01487,13.96673 -23.67973,19.23527 -14.3945,7.90929 -32.0631,12.95561 -48.19835,15.80377 -16.15007,2.87779 -30.81309,3.62224 -38.99091,3.62224 -7.13521,0 -19.18711,-0.55371 -32.80754,-2.59446 -10.25004,-1.55001 -21.40194,-3.90742 -32.14273,-7.40188 -8.03707,-2.62594 -15.8334,-5.86855 -22.8575,-9.7593 -5.28336,-2.91113 -10.1093,-6.18521 -14.31488,-9.80745 -6.34262,-5.45743 -11.32597,-11.61116 -14.82228,-18.82415 -3.47965,-7.26115 -5.60003,-15.676 -5.62966,-26.35382 0,-79.85034 0,-280.29748 0,-333.50881 4.25558,2.27779 8.8593,4.22224 13.88895,5.9778 12.00561,4.16113 26.19456,7.24448 41.60203,9.37967 15.37414,2.13705 31.93532,3.24261 48.40205,3.24261 1.26668,0 2.54816,0 3.79632,-0.0148 h 0.0148 c 21.45009,-0.23704 38.62979,-2.01112 52.43726,-4.6352 20.67416,-3.93706 33.88162,-9.83893 42.31314,-15.50192 8.44633,-5.66299 11.95931,-11.1519 12.98709,-13.25561 3.3852,-6.86485 0.58519,-15.18525 -6.26484,-18.60193 -6.56299,-3.25927 -14.40932,-0.85371 -18.0797,5.31484 -0.11112,0.11111 -0.85371,1.10741 -2.97409,2.67408 -3.35187,2.48334 -10.18708,6.40558 -22.92047,9.77597 -12.71857,3.3852 -31.30383,6.18521 -57.80024,6.46854 h 0.0167 c -1.18519,0 -2.35741,0.0167 -3.52779,0.0167 -13.19079,0 -26.49455,-0.7926 -38.95942,-2.24631 -9.33337,-1.10741 -18.176,-2.60927 -26.0853,-4.39631 -5.9315,-1.34445 -11.32597,-2.87779 -15.97599,-4.4778 -3.47964,-1.23334 -6.53336,-2.50001 -9.03152,-3.74816 -3.77964,-1.85186 -6.24817,-3.76483 -7.18151,-4.79261 -0.063,-0.0963 -0.12593,-0.1426 -0.18889,-0.22223 0.14259,-2.52964 -0.3963,-4.95002 -1.50371,-7.0704 2.91112,-7.65744 6.97781,-14.02969 12.33709,-19.48712 3.3852,-3.43334 7.32596,-6.53336 11.94449,-9.3167 4.61854,-2.75187 9.93338,-5.20373 16.02229,-7.22966 10.4556,-3.4815 21.22787,-7.94078 31.68347,-13.25561 7.84448,-4.01669 15.48525,-8.51115 22.68343,-13.49265 1.47038,-1.0426 2.94075,-2.10372 4.39631,-3.17965 v 12.81302 c 0,10.02967 8.13152,18.14452 18.15934,18.14452 10.02967,0 18.14267,-8.11485 18.14267,-18.14452 v -13.39635 c 5.74262,4.33335 11.83338,8.33522 18.15933,11.98894 13.35191,7.71855 27.63531,13.93709 41.38166,18.52415 8.09818,2.72038 14.85191,6.13706 20.38897,10.12226 4.19261,2.99076 7.73522,6.27966 10.75561,9.96486 4.54076,5.48891 7.98707,11.8482 10.37597,19.42416 2.40371,7.59262 3.73334,16.41859 3.73334,26.55937 0.006,41.66314 0.006,256.26775 0.006,339.58106 z"
		id="path2"
		style="stroke-width:1.85186" />
</g>
</svg>
