<svg xmlns="http://www.w3.org/2000/svg" viewBox="0 0 24 24" fill="currentColor">
  <path d="M12 2L14.09 8.26L20 9L14.09 9.74L12 16L9.91 9.74L4 9L9.91 8.26L12 2Z" fill="white"/>
  <path d="M8 4L8.5 5.5L10 6L8.5 6.5L8 8L7.5 6.5L6 6L7.5 5.5L8 4Z" fill="white" opacity="0.8"/>
  <path d="M16 4L16.5 5.5L18 6L16.5 6.5L16 8L15.5 6.5L14 6L15.5 5.5L16 4Z" fill="white" opacity="0.6"/>
  <path d="M6 16L6.5 17.5L8 18L6.5 18.5L6 20L5.5 18.5L4 18L5.5 17.5L6 16Z" fill="white" opacity="0.7"/>
  <path d="M18 16L18.5 17.5L20 18L18.5 18.5L18 20L17.5 18.5L16 18L17.5 17.5L18 16Z" fill="white" opacity="0.5"/>
  <circle cx="5" cy="12" r="0.5" fill="white" opacity="0.9"/>
  <circle cx="19" cy="10" r="0.5" fill="white" opacity="0.8"/>
  <circle cx="3" cy="8" r="0.3" fill="white" opacity="0.6"/>
  <circle cx="21" cy="14" r="0.3" fill="white" opacity="0.7"/>
</svg>